#!OML:ASF F:\VICON\USERDATA\INSTALL\rory3\rory3.ASF
:FULLY-SPECIFIED
:DEGREES
128
root 1.4644395630754226 17.881258631561955 55.13478393121716 -3.485015686437829 0.8975738828661111 1.882303769216167
lfemur -1.4561308677099554 -5.179046632665518 -26.49477785075048
ltibia 23.87635006197499
lfoot -8.776736480739293 -1.9855171409736272
ltoes -7.643812281427006
rfemur -22.609077775919392 -0.2640848994145486 18.744868077869146
rtibia 57.19954123386131
rfoot -4.928749987512685 -3.2719668978410676
rtoes 6.97247579885907
lowerback 1.0 -0.8373638272256947 -2.3452718200008102
upperback 0.02409221840174064 -1.311227804682159 0.6211728832590176
thorax -5.245957672347529 -0.630352120612475 1.8097906473453185
lowerneck -16.138857783249367 -3.2330740879600444 -1.4664143452881526
upperneck 22.30742960812659 -4.251813017141187 0.7855079304582768
head 10.046398853171132 -1.9923335811624936 -0.026764817179000117
lclavicle -1.9364192025724326e-15 -2.276418023049461e-16
lhumerus -28.45325871782648 0.23485863289314857 81.89037506812211
lradius 24.40879203881454
lwrist 5.461527190739714
lhand -27.21878173530388 23.619372320950408
lfingers nan
lthumb -0.12929485165265753 54.176969048987075
rclavicle -1.9043833215736392e-15 -2.0105869282066113e-16
rhumerus -30.315337983870812 -22.714845391148803 -75.4244740696852
rradius 32.21241778260908
rwrist 3.1578883241954077
rhand -18.263249695642962 1.0
rfingers nan
rthumb 8.333719327231071 -8.045422871674928
129
root 1.4987453192319702 17.88798507905066 55.90151679176848 -3.3732940243229947 0.6454183417070165 2.5464904623352056
lfemur 1.1346576138504822 -5.3428751557686835 -27.242144082474265
ltibia 23.61709223607111
lfoot -8.099530966364805 -2.622215642350416
ltoes -7.653918818876379
rfemur -24.32077088125432 -0.16357940295974416 18.445284013949475
rtibia 55.40853578831003
rfoot -5.812348377545721 -2.6294065429301647
rtoes 5.691306202561215
lowerback 1.0 -1.1352470744333072 -2.9987068052813597
upperback 0.012417974517655167 -1.7580095099559807 0.6538377352207984
thorax -5.217619033981809 -0.8577427495868863 2.325269594747036
lowerneck -16.191109005679653 -3.145061931968085 -1.4667493349347291
upperneck 22.40345044426292 -4.086169476567209 0.7172803672120116
head 10.093398612496177 -1.937851818213026 -0.020690785191732203
lclavicle -1.9426630414035186e-15 -2.2999193998513186e-16
lhumerus -28.443895521245615 0.3214119237208992 81.87211926141106
lradius 24.296877789677502
lwrist 5.439984930857833
lhand -27.130411319921205 23.68922754849
lfingers nan
lthumb -0.14823760046695655 54.08913980174447
rclavicle -1.9097284628439594e-15 -2.0343476383985502e-16
rhumerus -30.57031865607672 -22.793284602522487 -75.33698823525349
rradius 32.26438255730818
rwrist 3.233256493102841
rhand -18.224265364668693 1.0
rfingers nan
rthumb 8.344457206470679 -8.020715564908446
130
root 1.5217136494784578 17.89647321501977 55.83464085911631 -3.1566414958312707 0.29395445999577996 2.0905661453382494
lfemur 3.3696560825276816 -5.314995170241112 -26.88895938628474
ltibia 23.65457481722735
lfoot -7.158842767776121 -3.503566929855962
ltoes -7.1512649854171055
rfemur -24.995816615311163 0.36858873049582375 19.597103280654398
rtibia 52.45333038853431
rfoot -6.580422916689026 -2.322462610915926
rtoes 4.463636696098594
lowerback 1.0 -1.4415759702611657 -2.921223251439389
upperback -0.05703627019063784 -2.1135518188072275 0.8673681837624289
thorax -5.196134626236306 -1.040354197670871 2.7251263921625384
lowerneck -16.23669998730989 -3.0555286860252884 -1.502342221104413
upperneck 22.6233792729894 -3.9183552894736935 0.6198250734660825
head 10.165329880434848 -1.883258751337998 -0.022035540729191533
lclavicle -1.9486811317065327e-15 -2.3251755322195394e-16
lhumerus -28.476384492346497 0.4006119206443173 81.86405860879788
lradius 24.159019345798
lwrist 5.43692983033845
lhand -27.114694232719792 23.676922733825773
lfingers nan
lthumb -0.029746659005319476 54.24944694927462
rclavicle -1.914415934886732e-15 -2.0552145245950473e-16
rhumerus -30.833094373162407 -23.021868678904827 -75.30660253675886
rradius 32.291012694022385
rwrist 3.3080230668390826
rhand -18.250318406925636 1.0
rfingers nan
rthumb 8.297407003205963 -8.09625304169376
131
root 1.5207641731096535 17.89797492498834 54.732383838957304 -3.016414077805445 -0.21288722272041882 1.2191431897011342
lfemur 5.245444029826482 -5.08945473535125 -26.043540144038083
ltibia 24.09682643509799
lfoot -5.962866420767676 -3.986687306395152
ltoes -7.643595464748162
rfemur -26.059949218059053 1.0580501382811929 20.66859092611115
rtibia 48.845867985063244
rfoot -7.211400111616415 -2.231226431323868
rtoes 3.5604080381701064
lowerback 1.0 -1.6737274072988109 -2.578929774878971
upperback -0.1460750385903018 -2.358595886292359 1.1488003396185142
thorax -5.174760097314867 -1.1503068082659045 3.084149015481307
lowerneck -16.239131522058788 -2.953344513367763 -1.537667369677571
upperneck 22.94263511338109 -3.7248172834491347 0.4876085696701909
head 10.250907279291761 -1.821418774346067 -0.029347696213056468
lclavicle -1.9537816776734367e-15 -2.3488577177233057e-16
lhumerus -28.48977438600881 0.4844860889771616 81.8783368865866
lradius 23.99185930012997
lwrist 5.431942895942523
lhand -27.1051871135016 23.648803932741135
lfingers nan
lthumb -0.08825154760368159 54.11205158122549
rclavicle -1.918246712003081e-15 -2.073269508316653e-16
rhumerus -31.071500054532798 -23.361196795137822 -75.3228971286718
rradius 32.28018182108316
rwrist 3.380113795755522
rhand -18.23503134564337 1.0
rfingers nan
rthumb 8.333645318632067 -8.021160773493785
132
root 1.5214001384811486 17.89298420105533 53.9085589722295 -2.999644229035819 -0.6630012308131576 0.7587130086309273
lfemur 6.8543839679442335 -4.79870214461892 -25.36836343033362
ltibia 24.88949441668023
lfoot -5.079903616802825 -4.584378705441873
ltoes -6.968770497633335
rfemur -25.775281397153968 1.7815326169962717 21.58736748534053
rtibia 44.63320990149641
rfoot -7.721723019570854 -2.2278546394176133
rtoes 2.7350995063848926
lowerback 1.0 -1.8422920157078035 -2.4812313048535755
upperback -0.19040568979339328 -2.551382540861365 1.3725831571122533
thorax -5.126510375444693 -1.2510715582838123 3.3483433865156136
lowerneck -16.247653378225873 -2.872890074082082 -1.6044128344655564
upperneck 23.28591791958618 -3.568165987644593 0.35263364891925486
head 10.344301411716952 -1.7714727418820089 -0.04430774809266855
lclavicle -1.958740212016477e-15 -2.3743069797821583e-16
lhumerus -28.526378465131287 0.545220721532762 81.90805357215994
lradius 23.80876738351776
lwrist 5.4398909882133735
lhand -27.11200054531378 23.670627809797494
lfingers nan
lthumb -0.01978928479425257 54.226688399486164
rclavicle -1.9218459471745316e-15 -2.0915596630181893e-16
rhumerus -31.29392375695825 -23.814711043645623 -75.38537511530306
rradius 32.23134605130587
rwrist 3.4463208301768606
rhand -18.248180263364798 1.0
rfingers nan
rthumb 8.311648663515964 -8.058130948379892
133
root 1.5388354244344868 17.894108750347534 54.22193899035368 -2.919365810362725 -0.9058629945819979 0.6328019829697893
lfemur 8.040666747622975 -4.581745629687702 -24.921253033899994
ltibia 26.151024137041333
lfoot -4.001713200863513 -4.40792071378571
ltoes -6.945571083926968
rfemur -25.586191160110694 1.9556004299277037 21.835501612641885
rtibia 40.25365434491897
rfoot -8.16338328632594 -2.473819406826224
rtoes 1.9666739604632169
lowerback 1.0 -1.973759976030832 -2.481525948178023
upperback -0.1965447663683157 -2.696341046136901 1.5504190962881659
thorax -5.0395704260690755 -1.321166323520571 3.556036562806197
lowerneck -16.22832564426247 -2.800850589177951 -1.6684082160974145
upperneck 23.590412350183065 -3.422415605430807 0.21602934094761211
head 10.418265490321652 -1.726142429529771 -0.062424895196186936
lclavicle -1.962754432964495e-15 -2.3967350576867264e-16
lhumerus -28.64220597129238 0.5627237521018329 81.92918246185418
lradius 23.611089676093343
lwrist 5.536113231731807
lhand -27.179829991696046 23.60144851094491
lfingers nan
lthumb -0.11478438245392086 54.108043634711116
rclavicle -1.9250306069839165e-15 -2.1098314078856615e-16
rhumerus -31.48543278255113 -24.317575375677336 -75.4832706924616
rradius 32.151319188999
rwrist 3.4807575838149325
rhand -18.212994023840984 1.0
rfingers nan
rthumb 8.386864492898356 -7.930092206296401
134
root 1.5566844158618791 17.897465761783373 54.37593310618374 -2.859236903051642 -1.0366580987127798 0.5066828429835839
lfemur 8.572398462477281 -4.448017920241796 -24.446185974978526
ltibia 28.088919296276206
lfoot -3.490596437573659 -4.624299957748464
ltoes -6.3111596989040155
rfemur -24.58223599122592 1.9917786104545745 22.392573003626282
rtibia 36.19834022600506
rfoot -8.490789676936345 -3.1315359632906072
rtoes 1.2133347531093142
lowerback 1.0 -2.065392183609751 -2.4355070325290606
upperback -0.19749567425267334 -2.7955478170418226 1.6826372358933428
thorax -4.944080261318232 -1.354486667297222 3.725150941875745
lowerneck -16.21063379597456 -2.7551719364722627 -1.7430754818897651
upperneck 23.786204771325448 -3.325091190476351 0.09913065100407571
head 10.461334926899642 -1.6971052627287033 -0.08382877298201573
lclavicle -1.9658752270006408e-15 -2.4147800989771447e-16
lhumerus -28.796000633979123 0.6326640621365778 81.9427864670411
lradius 23.3940982081116
lwrist 5.747980955301149
lhand -27.181388640882684 23.71677547048665
lfingers nan
lthumb -0.09634210707861413 54.22955961026742
rclavicle -1.9281989736133484e-15 -2.130186209829937e-16
rhumerus -31.613689144331165 -24.765329688297733 -75.58656350721262
rradius 32.06533600991651
rwrist 3.4344843426468676
rhand -18.244927543246476 1.0
rfingers nan
rthumb 8.340435560832985 -8.007010971284469
135
root 1.5609953002372126 17.890415983726776 53.94733275098125 -2.944059430823594 -1.1782509279104492 0.424323600254072
lfemur 8.425679181502591 -4.328538441581404 -23.968133391800897
ltibia 30.85167897903978
lfoot -3.1426047381964466 -4.097056429148449
ltoes -5.675969365200464
rfemur -24.126040652558373 1.8561647913226391 22.585496861575276
rtibia 33.10803344865985
rfoot -8.694811289897784 -4.324681355941374
rtoes 0.8405481658455862
lowerback 1.0 -2.0836509992838295 -2.3946829022614833
upperback -0.17819512372862867 -2.805251499450666 1.7651742578263834
thorax -4.88002088473745 -1.3649050704424666 3.7597011654262835
lowerneck -16.184900765255517 -2.7209950845661655 -1.7868007617010775
upperneck 23.872044332296106 -3.2500967158655074 -0.0068006807498472745
head 10.463920241640537 -1.6765917590575272 -0.10700801213393826
lclavicle -1.968239268714425e-15 -2.428835193025481e-16
lhumerus -28.930759012527766 0.8029849228990753 81.97043778644358
lradius 23.167051498396063
lwrist 6.029266000055059
lhand -27.256582241608605 23.63758960628241
lfingers nan
lthumb -0.17617395771017585 54.16011462338081
rclavicle -1.9316056842275228e-15 -2.1542612290951055e-16
rhumerus -31.624226451394534 -25.044671779592953 -75.62888555338333
rradius 31.98844151920945
rwrist 3.339874149068124
rhand -18.225704010701197 1.0
rfingers nan
rthumb 8.406934355363283 -7.889862599180937
